. 
 
http://www.torrenting.com          :     Once & For all ;)


               www . Torrenting . Com 

(((((((((((((= Enjoy No RAR releases =))))))))))))))))))))


...................................NFO:....................................

.[IMG]http://i.imgur.com/zxXqR.jpg[/IMG]
 
http://www.imdb.com/title/tt1506999/

A black ops super soldier seeks payback after she is betrayed and set up during a mission. 


General
Complete name                            : C:UsersrootDesktopHaywire 2011 R5 CAM AUDIO XViD-GBRHaywire 2011 R5 CAM AUDIO XViD-GBR .avi
Format                                   : AVI
Format/Info                              : Audio Video Interleave
File size                                : 1.02 GiB
Duration                                 : 1h 28mn
Overall bit rate                         : 1 639 Kbps
Writing library                          : VirtualDub build 33848/release

Video
ID                                       : 0
Format                                   : MPEG-4 Visual
Format profile                           : Advanced Simple@L5
Format settings, BVOP                    : 1
Format settings, QPel                    : No
Format settings, GMC                     : No warppoints
Format settings, Matrix                  : Default (H.263)
Muxing mode                              : Packed bitstream
Codec ID                                 : XVID
Codec ID/Hint                            : XviD
Duration                                 : 1h 28mn
Bit rate                                 : 1 501 Kbps
Width                                    : 720 pixels
Height                                   : 528 pixels
Display aspect ratio                     : 4:3
Frame rate                               : 25.000 fps
Color space                              : YUV
Chroma subsampling                       : 4:2:0
Bit depth                                : 8 bits
Scan type                                : Progressive
Compression mode                         : Lossy
Bits/(Pixel*Frame)                       : 0.158
Stream size                              : 955 MiB (92%)
Writing library                          : XviD 1.2.1 (UTC 2008-12-04)

Audio
ID                                       : 1
Format                                   : MPEG Audio
Format version                           : Version 1
Format profile                           : Layer 3
Mode                                     : Joint stereo
Mode extension                           : MS Stereo
Codec ID                                 : 55
Codec ID/Hint                            : MP3
Duration                                 : 1h 28mn
Bit rate mode                            : Constant
Bit rate                                 : 128 Kbps
Channel(s)                               : 2 channels
Sampling rate                            : 44.1 KHz
Compression mode                         : Lossy
Stream size                              : 81.4 MiB (8%)
Alignment                                : Split accross interleaves
Interleave, duration                     : 40 ms (1.00 video frame)
Interleave, preload duration             : 500 ms

Source VIDEO -  R5 DVD9 thanks
AUDIO -  INSPiRAL-thanks

[IMG]http://i.imgur.com/ZMz69.png[/IMG]
[IMG]http://i.imgur.com/NW2pV.png[/IMG]
[IMG]http://i.imgur.com/HhlxR.png[/IMG]
[IMG]http://i.imgur.com/E83ed.png[/IMG]